<svg viewBox="0 0 500 500" xmlns="http://www.w3.org/2000/svg">

  <!-- Heart background -->
  <path 
    fill="white"
    d="
      M250 440
      L70 260
      C20 210 20 130 70 80
      C120 30 200 40 250 90
      C300 40 380 30 430 80
      C480 130 480 210 430 260
      Z"
  />

  <!-- Centered J&L logo (exact path, untouched) -->
  <g transform="translate(85,115) scale(1.35)">
    <path 
      fill="#427161"
      vector-effect="non-scaling-stroke"
      d="M 213.233 15.381 L 211.963 17.578 Q 211.914 17.578 210.742 17.017 Q 209.57 16.455 207.52 15.82 Q 205.469 15.186 202.637 14.648 Q 199.805 14.111 196.533 14.111 Q 190.772 14.111 186.206 15.796 Q 181.641 17.48 178.491 20.41 Q 175.342 23.34 173.657 27.271 Q 171.973 31.201 171.973 35.645 Q 171.973 40.625 174.268 44.556 Q 176.563 48.486 180.42 51.196 Q 184.278 53.906 189.38 55.322 Q 194.483 56.738 200.098 56.738 Q 202.393 56.738 204.614 56.592 Q 206.836 56.445 209.033 56.104 Q 212.5 50.684 215.747 44.873 Q 218.994 39.063 222.217 33.496 Q 225.44 27.93 228.711 22.925 Q 231.983 17.92 235.523 14.16 Q 239.063 10.4 242.969 8.179 Q 246.875 5.957 251.367 5.957 Q 253.125 5.957 254.639 6.519 Q 256.153 7.08 257.276 8.228 Q 258.399 9.375 259.033 11.133 Q 259.668 12.891 259.668 15.234 Q 259.668 19.043 258.203 23.267 Q 256.738 27.49 253.955 31.714 Q 251.172 35.938 247.168 40.015 Q 243.164 44.092 238.086 47.559 Q 233.008 51.025 226.953 53.735 Q 220.899 56.445 214.063 57.959 Q 210.84 62.402 207.422 66.333 Q 204.004 70.264 200.195 73.438 Q 203.906 74.414 207.471 75.513 Q 211.035 76.611 214.234 77.515 Q 217.432 78.418 220.166 79.028 Q 222.901 79.639 225 79.639 Q 228.125 79.639 231.03 78.564 Q 233.936 77.49 236.817 74.756 L 238.819 76.318 Q 238.77 76.367 238.281 76.929 Q 237.793 77.49 236.817 78.296 Q 235.84 79.102 234.375 80.005 Q 232.91 80.908 230.933 81.689 Q 228.955 82.471 226.441 82.983 Q 223.926 83.496 220.85 83.496 Q 217.676 83.496 214.429 82.935 Q 211.182 82.373 207.862 81.47 Q 204.541 80.566 201.221 79.492 Q 197.901 78.418 194.678 77.393 Q 190.82 79.736 186.621 81.079 Q 182.422 82.422 177.783 82.422 Q 173.828 82.422 171.729 81.006 Q 169.629 79.59 169.629 77.246 Q 169.629 74.17 173.047 72.51 Q 176.465 70.85 183.399 70.85 Q 186.426 70.85 189.502 71.289 Q 192.578 71.729 195.752 72.412 Q 198.828 69.727 201.612 66.357 Q 204.395 62.988 207.031 59.131 Q 205.029 59.375 202.979 59.497 Q 200.928 59.619 198.828 59.619 Q 191.162 59.619 185.156 57.788 Q 179.151 55.957 175 52.759 Q 170.85 49.561 168.677 45.239 Q 166.504 40.918 166.504 35.938 Q 166.504 30.078 168.75 25.537 Q 170.996 20.996 174.927 17.896 Q 178.858 14.795 184.18 13.159 Q 189.502 11.523 195.606 11.523 Q 199.463 11.523 202.637 12.109 Q 205.811 12.695 208.13 13.379 Q 210.449 14.063 211.768 14.697 Q 213.086 15.332 213.233 15.381 Z 
      M 76.563 67.09 L 75.83 69.385 Q 73.779 68.848 71.753 68.335 Q 69.727 67.822 67.627 67.383 Q 65.137 72.461 62.354 77.344 Q 59.57 82.227 56.445 86.963 Q 54.053 90.576 51.099 94.043 Q 48.145 97.51 44.849 100.562 Q 41.553 103.613 38.013 106.177 Q 34.473 108.74 30.884 110.62 Q 27.295 112.5 23.755 113.525 Q 20.215 114.551 16.895 114.551 Q 13.916 114.551 10.889 113.501 Q 7.862 112.451 5.445 110.352 Q 3.028 108.252 1.514 105.103 Q 0 101.953 0 97.705 Q 0 95.508 0.513 93.066 Q 1.026 90.625 2.197 88.037 Q 3.369 85.449 5.225 82.739 Q 7.08 80.029 9.766 77.197 Q 13.33 73.438 17.749 70.703 Q 22.168 67.969 27.149 66.187 Q 32.129 64.404 37.549 63.55 Q 42.969 62.695 48.535 62.695 Q 52.197 62.695 55.835 63.037 Q 59.473 63.379 63.135 64.014 Q 65.723 58.643 67.822 53.32 Q 69.922 47.998 71.485 42.822 Q 73.828 34.912 74.854 29.102 Q 75.879 23.291 75.879 19.043 Q 75.879 15.43 75.293 12.817 Q 74.707 10.205 73.779 8.374 Q 72.852 6.543 71.631 5.396 Q 70.41 4.248 69.165 3.638 Q 67.92 3.027 66.724 2.808 Q 65.528 2.588 64.6 2.588 Q 60.694 2.588 57.617 4.443 Q 54.541 6.299 52.417 9.668 Q 50.293 13.037 49.17 17.798 Q 48.047 22.559 48.047 28.369 Q 48.047 32.91 48.828 36.768 Q 49.61 40.625 50.781 43.799 Q 51.953 46.973 53.345 49.414 Q 54.737 51.855 55.933 53.516 Q 57.129 55.176 57.91 56.055 Q 58.692 56.934 58.74 56.934 L 57.227 58.496 Q 54.102 55.811 51.367 52.539 Q 48.633 49.268 46.631 45.508 Q 44.629 41.748 43.457 37.524 Q 42.285 33.301 42.285 28.662 Q 42.285 23.389 43.799 18.262 Q 45.313 13.135 48.194 9.058 Q 51.074 4.98 55.274 2.49 Q 59.473 0 64.844 0 Q 66.065 0 67.676 0.244 Q 69.287 0.488 70.996 1.245 Q 72.705 2.002 74.39 3.369 Q 76.074 4.736 77.368 7.007 Q 78.662 9.277 79.468 12.573 Q 80.274 15.869 80.274 20.459 Q 80.274 22.559 80.078 24.927 Q 79.883 27.295 79.492 30.029 Q 78.125 39.111 75.391 47.876 Q 72.656 56.641 68.701 65.137 Q 70.752 65.576 72.705 66.064 Q 74.658 66.553 76.563 67.09 Z 
      M 140.332 64.307 L 139.844 62.549 Q 142.188 62.109 144.58 62.109 Q 147.608 62.109 150.488 62.988 Q 153.369 63.867 155.64 65.503 Q 157.91 67.139 159.278 69.531 Q 160.645 71.924 160.645 74.951 Q 160.645 77.637 159.448 79.834 Q 158.252 82.031 156.153 83.618 Q 154.053 85.205 151.172 86.06 Q 148.291 86.914 144.922 86.914 Q 141.016 86.914 137.427 86.06 Q 133.838 85.205 130.591 83.691 Q 127.344 82.178 124.39 80.054 Q 121.436 77.93 118.897 75.342 Q 115.332 77.002 111.402 77.954 Q 107.471 78.906 103.223 78.906 Q 97.998 78.906 94.287 77.808 Q 90.576 76.709 88.233 74.829 Q 85.889 72.949 84.79 70.459 Q 83.692 67.969 83.692 65.137 Q 83.692 61.475 85.376 58.618 Q 87.061 55.762 89.893 53.54 Q 92.725 51.318 96.436 49.561 Q 100.147 47.803 104.199 46.289 Q 103.906 44.043 103.906 41.846 Q 103.906 36.816 105.762 32.715 Q 107.617 28.613 110.62 25.732 Q 113.623 22.852 117.359 21.265 Q 121.094 19.678 124.854 19.678 Q 127.246 19.678 129.199 20.361 Q 131.153 21.045 132.52 22.241 Q 133.887 23.438 134.644 25.049 Q 135.401 26.66 135.401 28.467 Q 135.401 31.006 134.351 33.032 Q 133.301 35.059 131.47 36.719 Q 129.639 38.379 127.173 39.746 Q 124.707 41.113 121.851 42.285 Q 118.994 43.457 115.918 44.556 Q 112.842 45.654 109.766 46.777 Q 110.352 49.512 111.402 52.588 Q 112.451 55.664 113.916 58.813 Q 115.381 61.963 117.261 65.088 Q 119.141 68.213 121.338 71.045 Q 124.121 69.385 126.441 67.285 Q 128.76 65.186 130.445 62.817 Q 132.129 60.449 133.081 57.91 Q 134.033 55.371 134.033 52.783 Q 134.033 50.83 133.692 49.658 Q 133.35 48.486 133.301 48.145 L 135.791 47.461 Q 135.987 47.998 136.304 49.414 Q 136.621 50.83 136.621 52.832 Q 136.621 55.518 135.645 58.301 Q 134.668 61.084 132.886 63.721 Q 131.104 66.357 128.589 68.75 Q 126.074 71.143 122.998 73.096 Q 125.147 75.635 127.564 77.783 Q 129.981 79.932 132.617 81.494 Q 135.254 83.057 138.062 83.936 Q 140.869 84.814 143.848 84.814 Q 146.289 84.814 148.535 84.18 Q 150.781 83.545 152.49 82.251 Q 154.199 80.957 155.225 78.931 Q 156.25 76.904 156.25 74.121 Q 156.25 71.631 155.225 69.751 Q 154.199 67.871 152.49 66.577 Q 150.781 65.283 148.609 64.624 Q 146.436 63.965 144.092 63.965 Q 143.067 63.965 142.114 64.063 Q 141.162 64.16 140.332 64.307 Z 
      M 16.846 112.012 Q 20.508 112.207 24.463 110.596 Q 28.418 108.984 32.422 105.933 Q 36.426 102.881 40.405 98.584 Q 44.385 94.287 48.169 89.16 Q 51.953 84.033 55.445 78.271 Q 58.936 72.51 61.963 66.455 Q 59.473 66.113 57.007 65.918 Q 54.541 65.723 51.953 65.723 Q 44.336 65.723 37.866 67.432 Q 31.397 69.141 26.099 71.973 Q 20.801 74.805 16.748 78.467 Q 12.695 82.129 9.961 86.011 Q 7.227 89.893 5.811 93.726 Q 4.395 97.559 4.395 100.732 Q 4.395 103.223 5.249 105.298 Q 6.104 107.373 7.691 108.862 Q 9.278 110.352 11.597 111.182 Q 13.916 112.012 16.846 112.012 Z 
      M 251.563 8.643 Q 248.828 8.643 246.143 10.596 Q 243.457 12.549 240.723 15.894 Q 237.988 19.238 235.181 23.755 Q 232.373 28.271 229.395 33.374 Q 226.416 38.477 223.194 43.896 Q 219.971 49.316 216.455 54.541 Q 222.315 52.93 227.612 50.342 Q 232.91 47.754 237.427 44.531 Q 241.944 41.309 245.581 37.622 Q 249.219 33.936 251.782 30.078 Q 254.346 26.221 255.713 22.437 Q 257.08 18.652 257.08 15.186 Q 257.08 13.379 256.641 12.134 Q 256.201 10.889 255.445 10.107 Q 254.688 9.326 253.687 8.984 Q 252.686 8.643 251.563 8.643 Z 
      M 104.59 48.779 Q 101.514 50.098 98.804 51.611 Q 96.094 53.125 94.092 55.005 Q 92.09 56.885 90.918 59.229 Q 89.746 61.572 89.746 64.502 Q 89.746 66.992 90.552 69.116 Q 91.358 71.24 93.091 72.827 Q 94.824 74.414 97.51 75.293 Q 100.195 76.172 103.955 76.172 Q 107.276 76.172 110.596 75.439 Q 113.916 74.707 116.992 73.34 Q 114.551 70.654 112.549 67.627 Q 110.547 64.6 108.985 61.45 Q 107.422 58.301 106.299 55.103 Q 105.176 51.904 104.59 48.779 Z 
      M 132.666 28.516 Q 132.666 27.393 132.202 26.27 Q 131.738 25.146 130.786 24.268 Q 129.834 23.389 128.345 22.852 Q 126.856 22.314 124.854 22.314 Q 122.119 22.314 119.312 23.364 Q 116.504 24.414 114.234 26.685 Q 111.963 28.955 110.523 32.544 Q 109.082 36.133 109.082 41.162 Q 109.082 41.943 109.131 42.773 Q 109.18 43.604 109.326 44.482 Q 113.77 42.92 117.969 41.382 Q 122.168 39.844 125.44 38.013 Q 128.711 36.182 130.689 33.887 Q 132.666 31.592 132.666 28.516 Z 
      M 177.49 79.883 Q 181.104 79.883 184.326 78.882 Q 187.549 77.881 190.576 76.123 Q 187.354 75.195 184.351 74.609 Q 181.348 74.023 178.565 74.023 Q 175.244 74.023 173.706 75 Q 172.168 75.977 172.168 77.246 Q 172.168 77.637 172.388 78.101 Q 172.608 78.564 173.194 78.955 Q 173.779 79.346 174.805 79.614 Q 175.83 79.883 177.49 79.883 Z"
    />
  </g>

</svg>
